<?xml version="1.0" encoding="UTF-8"?>
<svg width="800" height="600" viewBox="0 0 800 600" xmlns="http://www.w3.org/2000/svg">
  <!-- Urne de vote -->
  <g transform="translate(100,100) scale(0.8)">
    <path d="M20 10 h60 v50 h-60 v-50 M15 60 h70 v10 h-70 v-10" 
          fill="none" stroke="rgba(0,0,0,0.1)" stroke-width="2"/>
    <path d="M45 20 l5 -10 l5 10" 
          fill="none" stroke="rgba(0,0,0,0.1)" stroke-width="2"/>
  </g>

  <!-- Bulletin de vote -->
  <g transform="translate(600,150) scale(0.8)">
    <path d="M20 10 h40 v60 h-40 v-60" 
          fill="none" stroke="rgba(0,0,0,0.1)" stroke-width="2"/>
    <path d="M25 20 h30 M25 30 h30 M25 40 h20" 
          fill="none" stroke="rgba(0,0,0,0.1)" stroke-width="2"/>
    <path d="M45 45 l10 10" 
          fill="none" stroke="rgba(0,0,0,0.1)" stroke-width="2"/>
  </g>

  <!-- Main qui vote -->
  <g transform="translate(200,400) scale(0.8)">
    <path d="M30 60 c0,-20 0,-40 10,-40 c10,0 10,20 10,20 c0,-10 0,-30 10,-30 c10,0 10,20 10,20 c0,-10 0,-20 10,-20 c10,0 10,40 10,40" 
          fill="none" stroke="rgba(0,0,0,0.1)" stroke-width="2"/>
  </g>

  <!-- Isoloir -->
  <g transform="translate(500,350) scale(0.8)">
    <path d="M20 10 h60 M20 10 v70 M80 10 v70 M30 80 h40" 
          fill="none" stroke="rgba(0,0,0,0.1)" stroke-width="2"/>
    <path d="M35 20 v40 M65 20 v40" 
          fill="none" stroke="rgba(0,0,0,0.1)" stroke-width="2"/>
  </g>

  <!-- Badge électeur -->
  <g transform="translate(350,250) scale(0.8)">
    <path d="M30 20 h40 v60 h-40 v-60" 
          fill="none" stroke="rgba(0,0,0,0.1)" stroke-width="2"/>
    <circle cx="50" cy="40" r="10" 
            fill="none" stroke="rgba(0,0,0,0.1)" stroke-width="2"/>
    <path d="M40 55 h20" 
          fill="none" stroke="rgba(0,0,0,0.1)" stroke-width="2"/>
  </g>
</svg>